<svg width="50" height="50" viewBox="0 0 50 50" fill="none" xmlns="http://www.w3.org/2000/svg">
<path d="M38.0001 30.6167C37.9999 33.7005 37.2191 36.7347 35.7295 39.44C34.24 42.1453 32.0895 44.4348 29.4762 46.0978C26.8628 47.7607 23.8705 48.7437 20.7747 48.9562C17.6788 49.1686 14.579 48.6038 11.7604 47.3137C8.94178 46.0235 6.49505 44.0495 4.6454 41.5734C2.79575 39.0972 1.60261 36.1985 1.17581 33.144C0.749012 30.0895 1.10226 26.9773 2.20305 24.0941C3.30383 21.2108 5.11678 18.649 7.47502 16.6445" stroke="#00C4C4" stroke-linecap="round" stroke-linejoin="round"/>
<path d="M18.6863 23.8144C18.2953 24.6167 18.0929 25.4968 18.0943 26.3882C18.0894 27.1283 18.2325 27.862 18.5152 28.5468C18.798 29.2315 19.2148 29.8536 19.7414 30.377C20.2681 30.9004 20.8941 31.3145 21.5831 31.5955C22.2722 31.8765 23.0105 32.0187 23.7553 32.0138C24.5109 32.0138 25.2356 32.3121 25.7699 32.843C26.3042 33.374 26.6043 34.0941 26.6043 34.845V47.6038M1.25928 33.4478H8.10429C8.86493 33.4282 9.62182 33.5601 10.3303 33.8359C11.0388 34.1116 11.6845 34.5256 12.2294 35.0534C12.7743 35.5811 13.2073 36.212 13.5029 36.9088C13.7984 37.6055 13.9506 38.354 13.9503 39.1102V48.1185M48.2124 6.2389L44.5124 4.98876C44.2523 4.90097 43.9705 4.90017 43.7099 4.98648C43.4494 5.07279 43.2244 5.24147 43.0694 5.46675L40.3684 9.62162L25.5683 2.26787C24.3986 1.58282 23.091 1.16316 21.7391 1.03891C20.3871 0.914654 19.0242 1.08888 17.7479 1.54913C16.4716 2.00938 15.3135 2.74426 14.3563 3.70121C13.3992 4.65815 12.6667 5.8135 12.2113 7.08458C12.0858 7.41432 12.0319 7.76672 12.0531 8.11864C12.0743 8.47055 12.1701 8.81404 12.3344 9.12654C12.4986 9.43904 12.7275 9.7135 13.006 9.93189C13.2845 10.1503 13.6063 10.3077 13.9503 10.3938L23.6073 13.4823L24.5693 13.8133L26.3823 19.9904C26.4406 20.2055 26.5525 20.4025 26.7077 20.5632C26.8629 20.7239 27.0564 20.843 27.2703 20.9096L31.6363 22.3068C31.8592 22.379 32.097 22.3931 32.327 22.3477C32.5569 22.3023 32.7713 22.1991 32.9495 22.0478C33.1278 21.8965 33.2639 21.7022 33.345 21.4836C33.426 21.265 33.4492 21.0294 33.4123 20.7993L32.4503 16.2032H33.0793L42.5144 19.255C43.1327 19.4669 43.8102 19.4273 44.3993 19.1449C44.9884 18.8625 45.4413 18.3603 45.6594 17.7475L48.9894 7.56257C49.026 7.28754 48.9696 7.0082 48.8289 6.76855C48.6882 6.52891 48.4713 6.34257 48.2124 6.2389Z" stroke="#EDEDED" stroke-linecap="round" stroke-linejoin="round"/>
</svg>
